<svg xmlns="http://www.w3.org/2000/svg" version="1.1" xmlns:xlink="http://www.w3.org/1999/xlink" xmlns:svgjs="http://svgjs.dev/svgjs" width="1440" height="560" preserveAspectRatio="none" viewBox="0 0 1440 560"><g mask="url(&quot;#SvgjsMask1008&quot;)" fill="none"><rect width="1440" height="560" x="0" y="0" fill="rgba(8, 8, 9, 1)"></rect><path d="M38.51734445378521 327.07466376799283L109.19638166338359 253.8843781879221 36.006096083312855 183.2053409783237-34.67294112628552 256.39562655839444z" fill="rgba(28, 83, 142, 0.4)" class="triangle-float2"></path><path d="M-20.47087967634176 6.669776007035679L74.63295643198197 105.15268125497495 173.11586167992124 10.048845146651232 78.01202557159752-88.43406010128804z" fill="rgba(28, 83, 142, 0.4)" class="triangle-float1"></path><path d="M1172.0953257445758 122.46699914268942L1218.140710633518 158.44159652338965 1249.0799142600972 71.38622049962613z" fill="rgba(28, 83, 142, 0.4)" class="triangle-float2"></path><path d="M659.326,301.762C688.744,302.493,713.41,279.718,725.693,252.977C736.245,230.004,726.048,205.327,713.773,183.226C700.981,160.194,685.606,135.361,659.326,133.49C630.509,131.439,602.963,148.789,589.565,174.384C576.981,198.424,585.4,226.017,598.434,249.817C612.17,274.897,630.74,301.052,659.326,301.762" fill="rgba(28, 83, 142, 0.4)" class="triangle-float3"></path><path d="M1385.994,394.308C1416.119,394.967,1437.8,367.776,1451.161,340.768C1462.9,317.039,1462.517,289.531,1449.125,266.694C1435.895,244.133,1412.147,229.851,1385.994,229.634C1359.457,229.414,1333.938,242.449,1321.018,265.63C1308.402,288.266,1313.906,314.887,1325.587,338.019C1338.883,364.351,1356.502,393.663,1385.994,394.308" fill="rgba(28, 83, 142, 0.4)" class="triangle-float3"></path><path d="M38.977,152.524C66.98,150.188,89.674,132.022,103.517,107.569C117.125,83.531,121.791,54.39,108.12,30.387C94.326,6.168,66.849,-5.737,38.977,-5.746C11.088,-5.755,-14.471,7.341,-30.244,30.341C-48.719,57.281,-63.467,91.735,-47.365,120.157C-31.126,148.821,6.147,155.263,38.977,152.524" fill="rgba(28, 83, 142, 0.4)" class="triangle-float2"></path><path d="M1033.4319924258398 463.0559947252422L1128.478536493909 442.85322811951517 1050.6511145512839 310.384795320275z" fill="rgba(28, 83, 142, 0.4)" class="triangle-float3"></path><path d="M262.432,507.673C285.964,507.721,305.31,490.854,316.612,470.214C327.433,450.453,328.133,427.004,317.472,407.156C306.183,386.139,286.277,368.588,262.432,369.345C239.507,370.072,223.94,390.238,213.128,410.467C203.075,429.275,198.991,450.972,208.638,469.991C219.253,490.918,238.967,507.625,262.432,507.673" fill="rgba(28, 83, 142, 0.4)" class="triangle-float3"></path><path d="M1007.216,348.014C1023.279,348.127,1037.059,337.878,1045.274,324.075C1053.706,309.908,1057.101,292.338,1048.845,278.068C1040.6,263.816,1023.681,258.414,1007.216,258.296C990.501,258.176,972.804,262.934,964.536,277.461C956.333,291.873,961.495,309.356,970.078,323.545C978.302,337.14,991.327,347.902,1007.216,348.014" fill="rgba(28, 83, 142, 0.4)" class="triangle-float2"></path><path d="M352.41 358.73 a144.91 144.91 0 1 0 289.82 0 a144.91 144.91 0 1 0 -289.82 0z" fill="rgba(28, 83, 142, 0.4)" class="triangle-float1"></path><path d="M661.25,408.153C694.096,407.919,718.078,380.533,733.821,351.705C748.784,324.305,755.951,291.169,739.69,264.519C723.943,238.712,691.473,232.023,661.25,232.772C632.589,233.482,604.376,243.881,589.269,268.248C573.354,293.918,573.048,325.895,586.866,352.752C602.026,382.217,628.115,408.389,661.25,408.153" fill="rgba(28, 83, 142, 0.4)" class="triangle-float2"></path><path d="M242.28 208.32 a134.79 134.79 0 1 0 269.58 0 a134.79 134.79 0 1 0 -269.58 0z" fill="rgba(28, 83, 142, 0.4)" class="triangle-float3"></path><path d="M1175.6135117037877 477.32811061800777L1243.5961688520335 407.0641395714374 1161.0433270931348 384.94417228924624z" fill="rgba(28, 83, 142, 0.4)" class="triangle-float2"></path></g><defs><mask id="SvgjsMask1008"><rect width="1440" height="560" fill="#ffffff"></rect></mask><style>
                @keyframes float1 {
                    0%{transform: translate(0, 0)}
                    50%{transform: translate(-10px, 0)}
                    100%{transform: translate(0, 0)}
                }

                .triangle-float1 {
                    animation: float1 5s infinite;
                }

                @keyframes float2 {
                    0%{transform: translate(0, 0)}
                    50%{transform: translate(-5px, -5px)}
                    100%{transform: translate(0, 0)}
                }

                .triangle-float2 {
                    animation: float2 4s infinite;
                }

                @keyframes float3 {
                    0%{transform: translate(0, 0)}
                    50%{transform: translate(0, -10px)}
                    100%{transform: translate(0, 0)}
                }

                .triangle-float3 {
                    animation: float3 6s infinite;
                }
            </style></defs></svg>