<svg xmlns="http://www.w3.org/2000/svg" version="1.1" xmlns:xlink="http://www.w3.org/1999/xlink" xmlns:svgjs="http://svgjs.dev/svgjs" width="1440" height="560" preserveAspectRatio="none" viewBox="0 0 1440 560"><g mask="url(&quot;#SvgjsMask1027&quot;)" fill="none"><rect width="1440" height="560" x="0" y="0" fill="rgba(0, 0, 0, 1)"></rect><path d="M491 45L490 253" stroke-width="6" stroke="url(&quot;#SvgjsLinearGradient1028&quot;)" stroke-linecap="round" class="Down"></path><path d="M650 363L649 619" stroke-width="8" stroke="url(&quot;#SvgjsLinearGradient1028&quot;)" stroke-linecap="round" class="Down"></path><path d="M894 397L893 800" stroke-width="10" stroke="url(&quot;#SvgjsLinearGradient1029&quot;)" stroke-linecap="round" class="Up"></path><path d="M681 212L680 526" stroke-width="6" stroke="url(&quot;#SvgjsLinearGradient1029&quot;)" stroke-linecap="round" class="Up"></path><path d="M1348 168L1347 353" stroke-width="10" stroke="url(&quot;#SvgjsLinearGradient1029&quot;)" stroke-linecap="round" class="Up"></path><path d="M137 62L136 299" stroke-width="6" stroke="url(&quot;#SvgjsLinearGradient1028&quot;)" stroke-linecap="round" class="Down"></path><path d="M296 207L295 -116" stroke-width="6" stroke="url(&quot;#SvgjsLinearGradient1029&quot;)" stroke-linecap="round" class="Up"></path><path d="M191 476L190 885" stroke-width="8" stroke="url(&quot;#SvgjsLinearGradient1028&quot;)" stroke-linecap="round" class="Down"></path><path d="M984 71L983 292" stroke-width="6" stroke="url(&quot;#SvgjsLinearGradient1028&quot;)" stroke-linecap="round" class="Down"></path><path d="M961 528L960 204" stroke-width="6" stroke="url(&quot;#SvgjsLinearGradient1029&quot;)" stroke-linecap="round" class="Up"></path><path d="M523 242L522 67" stroke-width="8" stroke="url(&quot;#SvgjsLinearGradient1029&quot;)" stroke-linecap="round" class="Up"></path><path d="M544 366L543 639" stroke-width="6" stroke="url(&quot;#SvgjsLinearGradient1028&quot;)" stroke-linecap="round" class="Down"></path><path d="M499 477L498 183" stroke-width="10" stroke="url(&quot;#SvgjsLinearGradient1028&quot;)" stroke-linecap="round" class="Down"></path><path d="M1223 304L1222 605" stroke-width="10" stroke="url(&quot;#SvgjsLinearGradient1028&quot;)" stroke-linecap="round" class="Down"></path><path d="M440 332L439 -25" stroke-width="6" stroke="url(&quot;#SvgjsLinearGradient1029&quot;)" stroke-linecap="round" class="Up"></path><path d="M167 171L166 -197" stroke-width="10" stroke="url(&quot;#SvgjsLinearGradient1028&quot;)" stroke-linecap="round" class="Down"></path><path d="M988 457L987 690" stroke-width="6" stroke="url(&quot;#SvgjsLinearGradient1029&quot;)" stroke-linecap="round" class="Up"></path><path d="M1134 515L1133 779" stroke-width="10" stroke="url(&quot;#SvgjsLinearGradient1028&quot;)" stroke-linecap="round" class="Down"></path><path d="M237 10L236 -268" stroke-width="6" stroke="url(&quot;#SvgjsLinearGradient1028&quot;)" stroke-linecap="round" class="Down"></path><path d="M215 356L214 115" stroke-width="10" stroke="url(&quot;#SvgjsLinearGradient1029&quot;)" stroke-linecap="round" class="Up"></path><path d="M154 416L153 0" stroke-width="8" stroke="url(&quot;#SvgjsLinearGradient1028&quot;)" stroke-linecap="round" class="Down"></path><path d="M1396 106L1395 396" stroke-width="8" stroke="url(&quot;#SvgjsLinearGradient1029&quot;)" stroke-linecap="round" class="Up"></path><path d="M131 233L130 63" stroke-width="6" stroke="url(&quot;#SvgjsLinearGradient1029&quot;)" stroke-linecap="round" class="Up"></path><path d="M1209 126L1208 535" stroke-width="8" stroke="url(&quot;#SvgjsLinearGradient1028&quot;)" stroke-linecap="round" class="Down"></path><path d="M1339 544L1338 813" stroke-width="10" stroke="url(&quot;#SvgjsLinearGradient1029&quot;)" stroke-linecap="round" class="Up"></path><path d="M928 257L927 513" stroke-width="10" stroke="url(&quot;#SvgjsLinearGradient1028&quot;)" stroke-linecap="round" class="Down"></path><path d="M265 346L264 627" stroke-width="8" stroke="url(&quot;#SvgjsLinearGradient1029&quot;)" stroke-linecap="round" class="Up"></path><path d="M120 144L119 410" stroke-width="6" stroke="url(&quot;#SvgjsLinearGradient1028&quot;)" stroke-linecap="round" class="Down"></path><path d="M585 47L584 -345" stroke-width="10" stroke="url(&quot;#SvgjsLinearGradient1028&quot;)" stroke-linecap="round" class="Down"></path><path d="M972 237L971 420" stroke-width="6" stroke="url(&quot;#SvgjsLinearGradient1029&quot;)" stroke-linecap="round" class="Up"></path><path d="M393 283L392 -37" stroke-width="6" stroke="url(&quot;#SvgjsLinearGradient1028&quot;)" stroke-linecap="round" class="Down"></path><path d="M245 522L244 810" stroke-width="8" stroke="url(&quot;#SvgjsLinearGradient1029&quot;)" stroke-linecap="round" class="Up"></path><path d="M1247 557L1246 283" stroke-width="6" stroke="url(&quot;#SvgjsLinearGradient1029&quot;)" stroke-linecap="round" class="Up"></path><path d="M1083 269L1082 586" stroke-width="6" stroke="url(&quot;#SvgjsLinearGradient1028&quot;)" stroke-linecap="round" class="Down"></path><path d="M56 188L55 -32" stroke-width="8" stroke="url(&quot;#SvgjsLinearGradient1028&quot;)" stroke-linecap="round" class="Down"></path><path d="M1355 544L1354 809" stroke-width="10" stroke="url(&quot;#SvgjsLinearGradient1028&quot;)" stroke-linecap="round" class="Down"></path></g><defs><mask id="SvgjsMask1027"><rect width="1440" height="560" fill="#ffffff"></rect></mask><linearGradient x1="0%" y1="0%" x2="0%" y2="100%" id="SvgjsLinearGradient1028"><stop stop-color="rgba(57, 85, 115, 0)" offset="0"></stop><stop stop-color="rgba(57, 85, 115, 1)" offset="1"></stop></linearGradient><linearGradient x1="0%" y1="100%" x2="0%" y2="0%" id="SvgjsLinearGradient1029"><stop stop-color="rgba(57, 85, 115, 0)" offset="0"></stop><stop stop-color="rgba(57, 85, 115, 1)" offset="1"></stop></linearGradient></defs></svg>